<svg xmlns="http://www.w3.org/2000/svg" xmlns:xlink="http://www.w3.org/1999/xlink" width="500" zoomAndPan="magnify" viewBox="0 0 375 374.999991" height="500" preserveAspectRatio="xMidYMid meet" version="1.0"><defs><g/><clipPath id="cb2b44d650"><path d="M 159.71875 187.5 L 196.128906 187.5 L 196.128906 223.910156 L 159.71875 223.910156 Z M 159.71875 187.5 " clip-rule="nonzero"/></clipPath><clipPath id="7500c55bba"><path d="M 177.925781 187.5 C 167.871094 187.5 159.71875 195.652344 159.71875 205.703125 C 159.71875 215.757812 167.871094 223.910156 177.925781 223.910156 C 187.980469 223.910156 196.128906 215.757812 196.128906 205.703125 C 196.128906 195.652344 187.980469 187.5 177.925781 187.5 Z M 177.925781 187.5 " clip-rule="nonzero"/></clipPath><clipPath id="4ce1275a7f"><path d="M 125.429688 93.210938 L 237.929688 93.210938 L 237.929688 205.710938 L 125.429688 205.710938 Z M 125.429688 93.210938 " clip-rule="nonzero"/></clipPath></defs><rect x="-37.5" width="450" fill="#ffffff" y="-37.499999" height="449.999989" fill-opacity="1"/><rect x="-37.5" width="450" fill="#ffffff" y="-37.499999" height="449.999989" fill-opacity="1"/><g clip-path="url(#cb2b44d650)"><g clip-path="url(#7500c55bba)"><path stroke-linecap="butt" transform="matrix(0.75, 0, 0, 0.75, 159.720068, 187.499988)" fill="none" stroke-linejoin="miter" d="M 24.274285 0.0000164167 C 10.868034 0.0000164167 -0.00175788 10.869809 -0.00175788 24.270851 C -0.00175788 37.677102 10.868034 48.546895 24.274285 48.546895 C 37.680536 48.546895 48.54512 37.677102 48.54512 24.270851 C 48.54512 10.869809 37.680536 0.0000164167 24.274285 0.0000164167 Z M 24.274285 0.0000164167 " stroke="#000000" stroke-width="68" stroke-opacity="1" stroke-miterlimit="4"/></g></g><g clip-path="url(#4ce1275a7f)"><path fill="#ffffff" d="M 125.429688 93.210938 L 237.929688 93.210938 L 237.929688 205.710938 L 125.429688 205.710938 Z M 125.429688 93.210938 " fill-opacity="1" fill-rule="nonzero"/></g><g fill="#000000" fill-opacity="1"><g transform="translate(44.629682, 197.999987)"><g><path d="M 22.84375 -0.203125 L 18.921875 -0.203125 L 10.515625 -20.921875 L 10.40625 0 L 2.921875 0 L 2.921875 -33 L 13.5625 -33 L 20.921875 -13.953125 L 28.203125 -33 L 38.875 -33 L 38.875 0 L 31.40625 0 L 31.3125 -20.921875 Z M 22.84375 -0.203125 "/></g></g></g><g fill="#000000" fill-opacity="1"><g transform="translate(86.385531, 197.999987)"><g><path d="M 9.875 -16.515625 C 9.875 -14.804688 10.28125 -13.238281 11.09375 -11.8125 C 11.90625 -10.394531 13.003906 -9.25 14.390625 -8.375 C 15.785156 -7.507812 17.335938 -7.078125 19.046875 -7.078125 C 20.742188 -7.078125 22.28125 -7.507812 23.65625 -8.375 C 25.03125 -9.25 26.125 -10.394531 26.9375 -11.8125 C 27.75 -13.238281 28.15625 -14.804688 28.15625 -16.515625 C 28.15625 -18.222656 27.75 -19.789062 26.9375 -21.21875 C 26.125 -22.644531 25.03125 -23.785156 23.65625 -24.640625 C 22.28125 -25.492188 20.742188 -25.921875 19.046875 -25.921875 C 17.335938 -25.921875 15.785156 -25.492188 14.390625 -24.640625 C 13.003906 -23.785156 11.90625 -22.644531 11.09375 -21.21875 C 10.28125 -19.789062 9.875 -18.222656 9.875 -16.515625 Z M 2.40625 -16.515625 C 2.40625 -18.835938 2.828125 -21.023438 3.671875 -23.078125 C 4.523438 -25.128906 5.710938 -26.945312 7.234375 -28.53125 C 8.753906 -30.125 10.519531 -31.363281 12.53125 -32.25 C 14.550781 -33.144531 16.722656 -33.59375 19.046875 -33.59375 C 21.359375 -33.59375 23.519531 -33.144531 25.53125 -32.25 C 27.550781 -31.363281 29.3125 -30.125 30.8125 -28.53125 C 32.320312 -26.945312 33.503906 -25.128906 34.359375 -23.078125 C 35.210938 -21.023438 35.640625 -18.835938 35.640625 -16.515625 C 35.640625 -14.203125 35.210938 -12.007812 34.359375 -9.9375 C 33.503906 -7.875 32.320312 -6.054688 30.8125 -4.484375 C 29.3125 -2.910156 27.550781 -1.671875 25.53125 -0.765625 C 23.519531 0.140625 21.359375 0.59375 19.046875 0.59375 C 16.722656 0.59375 14.550781 0.140625 12.53125 -0.765625 C 10.519531 -1.671875 8.753906 -2.910156 7.234375 -4.484375 C 5.710938 -6.054688 4.523438 -7.875 3.671875 -9.9375 C 2.828125 -12.007812 2.40625 -14.203125 2.40625 -16.515625 Z M 2.40625 -16.515625 "/></g></g></g><g fill="#000000" fill-opacity="1"><g transform="translate(124.421753, 197.999987)"><g><path d="M 3 0 L 3 -33 L 23.640625 -16 L 23.71875 -33 L 31.234375 -33 L 31.234375 0 L 10.515625 -16.953125 L 10.515625 0 Z M 3 0 "/></g></g></g><g fill="#000000" fill-opacity="1"><g transform="translate(158.658353, 197.999987)"><g><path d="M 9.875 -16.515625 C 9.875 -14.804688 10.28125 -13.238281 11.09375 -11.8125 C 11.90625 -10.394531 13.003906 -9.25 14.390625 -8.375 C 15.785156 -7.507812 17.335938 -7.078125 19.046875 -7.078125 C 20.742188 -7.078125 22.28125 -7.507812 23.65625 -8.375 C 25.03125 -9.25 26.125 -10.394531 26.9375 -11.8125 C 27.75 -13.238281 28.15625 -14.804688 28.15625 -16.515625 C 28.15625 -18.222656 27.75 -19.789062 26.9375 -21.21875 C 26.125 -22.644531 25.03125 -23.785156 23.65625 -24.640625 C 22.28125 -25.492188 20.742188 -25.921875 19.046875 -25.921875 C 17.335938 -25.921875 15.785156 -25.492188 14.390625 -24.640625 C 13.003906 -23.785156 11.90625 -22.644531 11.09375 -21.21875 C 10.28125 -19.789062 9.875 -18.222656 9.875 -16.515625 Z M 2.40625 -16.515625 C 2.40625 -18.835938 2.828125 -21.023438 3.671875 -23.078125 C 4.523438 -25.128906 5.710938 -26.945312 7.234375 -28.53125 C 8.753906 -30.125 10.519531 -31.363281 12.53125 -32.25 C 14.550781 -33.144531 16.722656 -33.59375 19.046875 -33.59375 C 21.359375 -33.59375 23.519531 -33.144531 25.53125 -32.25 C 27.550781 -31.363281 29.3125 -30.125 30.8125 -28.53125 C 32.320312 -26.945312 33.503906 -25.128906 34.359375 -23.078125 C 35.210938 -21.023438 35.640625 -18.835938 35.640625 -16.515625 C 35.640625 -14.203125 35.210938 -12.007812 34.359375 -9.9375 C 33.503906 -7.875 32.320312 -6.054688 30.8125 -4.484375 C 29.3125 -2.910156 27.550781 -1.671875 25.53125 -0.765625 C 23.519531 0.140625 21.359375 0.59375 19.046875 0.59375 C 16.722656 0.59375 14.550781 0.140625 12.53125 -0.765625 C 10.519531 -1.671875 8.753906 -2.910156 7.234375 -4.484375 C 5.710938 -6.054688 4.523438 -7.875 3.671875 -9.9375 C 2.828125 -12.007812 2.40625 -14.203125 2.40625 -16.515625 Z M 2.40625 -16.515625 "/></g></g></g><g fill="#000000" fill-opacity="1"><g transform="translate(196.694575, 197.999987)"><g><path d="M 10.15625 -33 L 10.15625 -6.59375 L 21.515625 -6.59375 L 21.515625 0 L 2.640625 0 L 2.640625 -33 Z M 10.15625 -33 "/></g></g></g><g fill="#000000" fill-opacity="1"><g transform="translate(220.85217, 197.999987)"><g><path d="M 9.875 -16.515625 C 9.875 -14.804688 10.28125 -13.238281 11.09375 -11.8125 C 11.90625 -10.394531 13.003906 -9.25 14.390625 -8.375 C 15.785156 -7.507812 17.335938 -7.078125 19.046875 -7.078125 C 20.742188 -7.078125 22.28125 -7.507812 23.65625 -8.375 C 25.03125 -9.25 26.125 -10.394531 26.9375 -11.8125 C 27.75 -13.238281 28.15625 -14.804688 28.15625 -16.515625 C 28.15625 -18.222656 27.75 -19.789062 26.9375 -21.21875 C 26.125 -22.644531 25.03125 -23.785156 23.65625 -24.640625 C 22.28125 -25.492188 20.742188 -25.921875 19.046875 -25.921875 C 17.335938 -25.921875 15.785156 -25.492188 14.390625 -24.640625 C 13.003906 -23.785156 11.90625 -22.644531 11.09375 -21.21875 C 10.28125 -19.789062 9.875 -18.222656 9.875 -16.515625 Z M 2.40625 -16.515625 C 2.40625 -18.835938 2.828125 -21.023438 3.671875 -23.078125 C 4.523438 -25.128906 5.710938 -26.945312 7.234375 -28.53125 C 8.753906 -30.125 10.519531 -31.363281 12.53125 -32.25 C 14.550781 -33.144531 16.722656 -33.59375 19.046875 -33.59375 C 21.359375 -33.59375 23.519531 -33.144531 25.53125 -32.25 C 27.550781 -31.363281 29.3125 -30.125 30.8125 -28.53125 C 32.320312 -26.945312 33.503906 -25.128906 34.359375 -23.078125 C 35.210938 -21.023438 35.640625 -18.835938 35.640625 -16.515625 C 35.640625 -14.203125 35.210938 -12.007812 34.359375 -9.9375 C 33.503906 -7.875 32.320312 -6.054688 30.8125 -4.484375 C 29.3125 -2.910156 27.550781 -1.671875 25.53125 -0.765625 C 23.519531 0.140625 21.359375 0.59375 19.046875 0.59375 C 16.722656 0.59375 14.550781 0.140625 12.53125 -0.765625 C 10.519531 -1.671875 8.753906 -2.910156 7.234375 -4.484375 C 5.710938 -6.054688 4.523438 -7.875 3.671875 -9.9375 C 2.828125 -12.007812 2.40625 -14.203125 2.40625 -16.515625 Z M 2.40625 -16.515625 "/></g></g></g><g fill="#000000" fill-opacity="1"><g transform="translate(258.888381, 197.999987)"><g><path d="M 22.078125 -33 L 35.4375 0 L 27.359375 0 L 24.875 -6.59375 L 12.3125 -6.59375 L 9.921875 0 L 1.84375 0 L 15.125 -33 Z M 22.3125 -13.203125 L 18.5625 -22.796875 L 14.875 -13.203125 Z M 22.3125 -13.203125 "/></g></g></g><g fill="#000000" fill-opacity="1"><g transform="translate(296.124684, 197.999987)"><g><path d="M 3 0 L 3 -33 L 23.640625 -16 L 23.71875 -33 L 31.234375 -33 L 31.234375 0 L 10.515625 -16.953125 L 10.515625 0 Z M 3 0 "/></g></g></g></svg>